<mxfile host="65bd71144e">
    <diagram id="To-HPi1JEW5ZkS-U0Vjg" name="Page-1">
        <mxGraphModel dx="799" dy="684" grid="1" gridSize="10" guides="1" tooltips="1" connect="1" arrows="1" fold="1" page="0" pageScale="1" pageWidth="827" pageHeight="1169" math="0" shadow="0">
            <root>
                <object label="" id="0">
                    <mxCell/>
                </object>
                <mxCell id="1" parent="0"/>
                <mxCell id="R3Z3jWXpImrhK704x1m4-44" value="&lt;p style=&quot;margin: 0px ; margin-top: 4px ; text-align: center&quot;&gt;&lt;i&gt;&amp;lt;&amp;lt;Interface&amp;gt;&amp;gt;&lt;/i&gt;&lt;br&gt;&lt;b&gt;PaymentSystem&lt;/b&gt;&lt;/p&gt;&lt;hr size=&quot;1&quot;&gt;&lt;p style=&quot;margin: 0px ; margin-left: 4px&quot;&gt;...&lt;/p&gt;&lt;hr size=&quot;1&quot;&gt;&lt;p style=&quot;margin: 0px ; margin-left: 4px&quot;&gt;+ createCheckout(Order: order): Checkout&lt;br&gt;&lt;/p&gt;" style="verticalAlign=top;align=left;overflow=fill;fontSize=12;fontFamily=Helvetica;html=1;strokeWidth=2;" parent="1" vertex="1">
                    <mxGeometry x="360" y="440" width="240" height="120" as="geometry"/>
                </mxCell>
                <mxCell id="R3Z3jWXpImrhK704x1m4-45" value="&lt;p style=&quot;margin: 0px ; margin-top: 4px ; text-align: center&quot;&gt;&lt;b&gt;PayPalPaymentSystem&lt;/b&gt;&lt;/p&gt;&lt;hr size=&quot;1&quot;&gt;&lt;p style=&quot;margin: 0px ; margin-left: 4px&quot;&gt;...&lt;/p&gt;&lt;hr size=&quot;1&quot;&gt;&lt;p style=&quot;margin: 0px 0px 0px 4px&quot;&gt;+ __construct(PayPalHttpClient: client)&lt;/p&gt;&lt;hr size=&quot;1&quot;&gt;&lt;p style=&quot;margin: 0px ; margin-left: 4px&quot;&gt;+ createCheckout(Order: order): Checkout&lt;br&gt;&lt;/p&gt;" style="verticalAlign=top;align=left;overflow=fill;fontSize=12;fontFamily=Helvetica;html=1;strokeWidth=2;" parent="1" vertex="1">
                    <mxGeometry x="360" y="200" width="240" height="120" as="geometry"/>
                </mxCell>
                <mxCell id="R3Z3jWXpImrhK704x1m4-46" value="" style="endArrow=block;dashed=1;endFill=0;endSize=12;html=1;rounded=0;edgeStyle=orthogonalEdgeStyle;strokeWidth=2;" parent="1" source="R3Z3jWXpImrhK704x1m4-45" target="R3Z3jWXpImrhK704x1m4-44" edge="1">
                    <mxGeometry width="160" relative="1" as="geometry">
                        <mxPoint x="280" y="420" as="sourcePoint"/>
                        <mxPoint x="470" y="540" as="targetPoint"/>
                    </mxGeometry>
                </mxCell>
                <mxCell id="R3Z3jWXpImrhK704x1m4-47" value="&lt;p style=&quot;margin: 0px ; margin-top: 4px ; text-align: center&quot;&gt;&lt;b&gt;LiqPayPaymentSystem&lt;/b&gt;&lt;/p&gt;&lt;hr size=&quot;1&quot;&gt;&lt;p style=&quot;margin: 0px ; margin-left: 4px&quot;&gt;...&lt;/p&gt;&lt;hr size=&quot;1&quot;&gt;&lt;p style=&quot;margin: 0px 0px 0px 4px&quot;&gt;+ __construct(LiqPay: client)&lt;/p&gt;&lt;hr size=&quot;1&quot;&gt;&lt;p style=&quot;margin: 0px ; margin-left: 4px&quot;&gt;+ createCheckout(Order: order): Checkout&lt;br&gt;&lt;/p&gt;" style="verticalAlign=top;align=left;overflow=fill;fontSize=12;fontFamily=Helvetica;html=1;strokeWidth=2;" parent="1" vertex="1">
                    <mxGeometry x="360" y="680" width="240" height="120" as="geometry"/>
                </mxCell>
                <mxCell id="R3Z3jWXpImrhK704x1m4-48" value="" style="endArrow=block;dashed=1;endFill=0;endSize=12;html=1;rounded=0;edgeStyle=orthogonalEdgeStyle;strokeWidth=2;" parent="1" source="R3Z3jWXpImrhK704x1m4-47" target="R3Z3jWXpImrhK704x1m4-44" edge="1">
                    <mxGeometry width="160" relative="1" as="geometry">
                        <mxPoint y="630" as="sourcePoint"/>
                        <mxPoint x="160" y="630" as="targetPoint"/>
                    </mxGeometry>
                </mxCell>
                <mxCell id="R3Z3jWXpImrhK704x1m4-51" value="" style="group" parent="1" vertex="1" connectable="0">
                    <mxGeometry x="630" y="600" width="330" height="280" as="geometry"/>
                </mxCell>
                <mxCell id="R3Z3jWXpImrhK704x1m4-21" value="liqpay / sdk-php" style="shape=module;align=left;spacingLeft=20;align=center;verticalAlign=top;strokeWidth=2;" parent="R3Z3jWXpImrhK704x1m4-51" vertex="1">
                    <mxGeometry width="330" height="280" as="geometry"/>
                </mxCell>
                <mxCell id="R3Z3jWXpImrhK704x1m4-26" value="&lt;p style=&quot;margin: 0px ; margin-top: 4px ; text-align: center&quot;&gt;&lt;b&gt;LiqPay&lt;/b&gt;&lt;/p&gt;&lt;hr size=&quot;1&quot;&gt;&lt;p style=&quot;margin: 0px ; margin-left: 4px&quot;&gt;- _api_url: string&lt;/p&gt;&lt;p style=&quot;margin: 0px ; margin-left: 4px&quot;&gt;- _public_key: string&lt;/p&gt;&lt;p style=&quot;margin: 0px ; margin-left: 4px&quot;&gt;- _private_key: string&lt;/p&gt;&lt;p style=&quot;margin: 0px ; margin-left: 4px&quot;&gt;...&lt;/p&gt;&lt;hr size=&quot;1&quot;&gt;&lt;p style=&quot;margin: 0px 0px 0px 4px&quot;&gt;+ __construct(public_key, private_key)&lt;/p&gt;&lt;hr size=&quot;1&quot;&gt;&lt;p style=&quot;margin: 0px ; margin-left: 4px&quot;&gt;+ api(path: string, params: array): stdClass&lt;/p&gt;&lt;p style=&quot;margin: 0px ; margin-left: 4px&quot;&gt;+ cnb_form(params: array): string&lt;/p&gt;&lt;p style=&quot;margin: 0px ; margin-left: 4px&quot;&gt;+ cnb_form_raw(params: array): array&lt;/p&gt;&lt;p style=&quot;margin: 0px ; margin-left: 4px&quot;&gt;...&lt;/p&gt;" style="verticalAlign=top;align=left;overflow=fill;fontSize=12;fontFamily=Helvetica;html=1;strokeWidth=2;" parent="R3Z3jWXpImrhK704x1m4-51" vertex="1">
                    <mxGeometry x="50" y="40" width="240" height="200" as="geometry"/>
                </mxCell>
                <mxCell id="R3Z3jWXpImrhK704x1m4-52" value="" style="group;strokeWidth=1;" parent="1" vertex="1" connectable="0">
                    <mxGeometry x="630" y="160" width="930" height="400" as="geometry"/>
                </mxCell>
                <mxCell id="R3Z3jWXpImrhK704x1m4-14" value="paypal / Checkout-PHP-SDK" style="shape=module;align=left;spacingLeft=20;align=center;verticalAlign=top;strokeWidth=2;" parent="R3Z3jWXpImrhK704x1m4-52" vertex="1">
                    <mxGeometry width="930" height="400" as="geometry"/>
                </mxCell>
                <mxCell id="R3Z3jWXpImrhK704x1m4-33" value="&lt;p style=&quot;margin: 0px ; margin-top: 4px ; text-align: center&quot;&gt;&lt;b&gt;ProductionEnvironment&lt;/b&gt;&lt;br&gt;&lt;/p&gt;&lt;hr size=&quot;1&quot;&gt;&lt;div style=&quot;height: 2px&quot;&gt;&lt;/div&gt;&lt;hr size=&quot;1&quot;&gt;&lt;div style=&quot;height: 2px&quot;&gt;&amp;nbsp;+ baseUrl(): string&lt;/div&gt;" style="verticalAlign=top;align=left;overflow=fill;fontSize=12;fontFamily=Helvetica;html=1;strokeWidth=2;" parent="R3Z3jWXpImrhK704x1m4-52" vertex="1">
                    <mxGeometry x="730" y="40" width="160" height="80" as="geometry"/>
                </mxCell>
                <mxCell id="R3Z3jWXpImrhK704x1m4-36" value="&lt;p style=&quot;margin: 0px ; margin-top: 4px ; text-align: center&quot;&gt;&lt;b&gt;PayPalHttpClient&lt;/b&gt;&lt;br&gt;&lt;/p&gt;&lt;hr size=&quot;1&quot;&gt;&lt;p style=&quot;margin: 0px ; margin-left: 4px&quot;&gt;- refreshToken&lt;/p&gt;&lt;p style=&quot;margin: 0px ; margin-left: 4px&quot;&gt;+ authInjector&lt;br&gt;&lt;/p&gt;&lt;hr size=&quot;1&quot;&gt;&lt;p style=&quot;margin: 0px 0px 0px 4px&quot;&gt;+ __construct(PayPalEnvironment environment, string: refreshToken)&lt;/p&gt;&lt;hr size=&quot;1&quot;&gt;&lt;p style=&quot;margin: 0px ; margin-left: 4px&quot;&gt;+ userAgent(): ...&lt;br&gt;&lt;/p&gt;&lt;p style=&quot;margin: 0px ; margin-left: 4px&quot;&gt;+&amp;nbsp;execute(OrdersCreateRequest: request): response&lt;/p&gt;" style="verticalAlign=top;align=left;overflow=fill;fontSize=12;fontFamily=Helvetica;html=1;strokeWidth=2;" parent="R3Z3jWXpImrhK704x1m4-52" vertex="1">
                    <mxGeometry x="50" y="40" width="360" height="160" as="geometry"/>
                </mxCell>
                <mxCell id="R3Z3jWXpImrhK704x1m4-28" value="&lt;p style=&quot;margin: 0px ; margin-top: 4px ; text-align: center&quot;&gt;&lt;b&gt;PayPalEnvironment&lt;/b&gt;&lt;br&gt;&lt;/p&gt;&lt;hr size=&quot;1&quot;&gt;&lt;p style=&quot;margin: 0px ; margin-left: 4px&quot;&gt;- clientId: string&lt;/p&gt;&lt;p style=&quot;margin: 0px ; margin-left: 4px&quot;&gt;- clientSecret: string&lt;br&gt;&lt;/p&gt;&lt;hr size=&quot;1&quot;&gt;&lt;p style=&quot;margin: 0px 0px 0px 4px&quot;&gt;+ __construct(clientId, clientSecret)&lt;/p&gt;&lt;hr size=&quot;1&quot;&gt;&lt;p style=&quot;margin: 0px ; margin-left: 4px&quot;&gt;+ authorizationString(): string&lt;br&gt;&lt;/p&gt;" style="verticalAlign=top;align=left;overflow=fill;fontSize=12;fontFamily=Helvetica;html=1;strokeWidth=2;" parent="R3Z3jWXpImrhK704x1m4-52" vertex="1">
                    <mxGeometry x="450" y="40" width="200" height="160" as="geometry"/>
                </mxCell>
                <mxCell id="R3Z3jWXpImrhK704x1m4-39" value="&lt;p style=&quot;margin: 0px ; margin-top: 4px ; text-align: center&quot;&gt;&lt;b&gt;SandboxEnvironment&lt;/b&gt;&lt;br&gt;&lt;/p&gt;&lt;hr size=&quot;1&quot;&gt;&lt;div style=&quot;height: 2px&quot;&gt;&lt;/div&gt;&lt;hr size=&quot;1&quot;&gt;&lt;div style=&quot;height: 2px&quot;&gt;&amp;nbsp;+ baseUrl(): string&lt;/div&gt;" style="verticalAlign=top;align=left;overflow=fill;fontSize=12;fontFamily=Helvetica;html=1;strokeWidth=2;" parent="R3Z3jWXpImrhK704x1m4-52" vertex="1">
                    <mxGeometry x="730" y="160" width="160" height="80" as="geometry"/>
                </mxCell>
                <mxCell id="R3Z3jWXpImrhK704x1m4-42" value="&lt;p style=&quot;margin: 0px ; margin-top: 4px ; text-align: center&quot;&gt;&lt;b&gt;OrdersCreateRequest&lt;/b&gt;&lt;br&gt;&lt;/p&gt;&lt;hr size=&quot;1&quot;&gt;&lt;p style=&quot;margin: 0px ; margin-left: 4px&quot;&gt;+&amp;nbsp;body: array&lt;/p&gt;&lt;hr size=&quot;1&quot;&gt;&lt;p style=&quot;margin: 0px 0px 0px 4px&quot;&gt;+ __construct()&lt;/p&gt;&lt;hr size=&quot;1&quot;&gt;&lt;p style=&quot;margin: 0px ; margin-left: 4px&quot;&gt;+ payPalPartnerAttributionId(...: payPalPartnerAttributionId): void&lt;br&gt;&lt;/p&gt;&lt;p style=&quot;margin: 0px ; margin-left: 4px&quot;&gt;+&amp;nbsp;prefer(string: prefer): void&lt;/p&gt;" style="verticalAlign=top;align=left;overflow=fill;fontSize=12;fontFamily=Helvetica;html=1;strokeWidth=2;" parent="R3Z3jWXpImrhK704x1m4-52" vertex="1">
                    <mxGeometry x="50" y="240" width="360" height="120" as="geometry"/>
                </mxCell>
                <mxCell id="R3Z3jWXpImrhK704x1m4-35" value="" style="endArrow=block;endSize=16;endFill=0;html=1;rounded=0;edgeStyle=orthogonalEdgeStyle;strokeWidth=2;" parent="R3Z3jWXpImrhK704x1m4-52" source="R3Z3jWXpImrhK704x1m4-33" target="R3Z3jWXpImrhK704x1m4-28" edge="1">
                    <mxGeometry x="740" y="170" width="160" as="geometry">
                        <mxPoint x="1010" y="510" as="sourcePoint"/>
                        <mxPoint x="1170" y="510" as="targetPoint"/>
                    </mxGeometry>
                </mxCell>
                <mxCell id="R3Z3jWXpImrhK704x1m4-38" value="" style="endArrow=open;endSize=12;dashed=1;html=1;rounded=0;edgeStyle=orthogonalEdgeStyle;strokeWidth=2;" parent="R3Z3jWXpImrhK704x1m4-52" source="R3Z3jWXpImrhK704x1m4-36" target="R3Z3jWXpImrhK704x1m4-28" edge="1">
                    <mxGeometry x="740" y="170" width="160" as="geometry">
                        <mxPoint x="1120" y="470" as="sourcePoint"/>
                        <mxPoint x="1280" y="470" as="targetPoint"/>
                    </mxGeometry>
                </mxCell>
                <mxCell id="R3Z3jWXpImrhK704x1m4-40" value="" style="endArrow=block;endSize=16;endFill=0;html=1;rounded=0;edgeStyle=orthogonalEdgeStyle;strokeWidth=2;" parent="R3Z3jWXpImrhK704x1m4-52" source="R3Z3jWXpImrhK704x1m4-39" target="R3Z3jWXpImrhK704x1m4-28" edge="1">
                    <mxGeometry x="740" y="170" width="160" as="geometry">
                        <mxPoint x="1540" y="245" as="sourcePoint"/>
                        <mxPoint x="1450" y="285" as="targetPoint"/>
                    </mxGeometry>
                </mxCell>
                <mxCell id="R3Z3jWXpImrhK704x1m4-43" value="" style="endArrow=open;endSize=12;dashed=1;html=1;rounded=0;edgeStyle=orthogonalEdgeStyle;strokeWidth=2;" parent="R3Z3jWXpImrhK704x1m4-52" source="R3Z3jWXpImrhK704x1m4-36" target="R3Z3jWXpImrhK704x1m4-42" edge="1">
                    <mxGeometry x="740" y="170" width="160" as="geometry">
                        <mxPoint x="1160" y="290" as="sourcePoint"/>
                        <mxPoint x="1240" y="285" as="targetPoint"/>
                    </mxGeometry>
                </mxCell>
                <mxCell id="R3Z3jWXpImrhK704x1m4-53" value="This is &lt;b&gt;Adapter&lt;/b&gt; for PayPal" style="shape=note;whiteSpace=wrap;html=1;backgroundOutline=1;darkOpacity=0.05;size=12;strokeWidth=2;" parent="1" vertex="1">
                    <mxGeometry x="160" y="300" width="160" height="40" as="geometry"/>
                </mxCell>
                <mxCell id="R3Z3jWXpImrhK704x1m4-54" value="" style="endArrow=none;dashed=1;html=1;rounded=0;edgeStyle=orthogonalEdgeStyle;strokeWidth=2;" parent="1" source="R3Z3jWXpImrhK704x1m4-45" target="R3Z3jWXpImrhK704x1m4-53" edge="1">
                    <mxGeometry width="50" height="50" relative="1" as="geometry">
                        <mxPoint x="430" y="200" as="sourcePoint"/>
                        <mxPoint x="480" y="150" as="targetPoint"/>
                    </mxGeometry>
                </mxCell>
                <mxCell id="R3Z3jWXpImrhK704x1m4-55" value="This is Adapter for LiqPay" style="shape=note;whiteSpace=wrap;html=1;backgroundOutline=1;darkOpacity=0.05;size=12;strokeWidth=2;" parent="1" vertex="1">
                    <mxGeometry x="160" y="720" width="160" height="40" as="geometry"/>
                </mxCell>
                <mxCell id="R3Z3jWXpImrhK704x1m4-56" value="" style="endArrow=none;dashed=1;html=1;rounded=0;edgeStyle=orthogonalEdgeStyle;strokeWidth=2;" parent="1" source="R3Z3jWXpImrhK704x1m4-55" target="R3Z3jWXpImrhK704x1m4-47" edge="1">
                    <mxGeometry width="50" height="50" relative="1" as="geometry">
                        <mxPoint x="-110" y="710" as="sourcePoint"/>
                        <mxPoint x="-60" y="660" as="targetPoint"/>
                    </mxGeometry>
                </mxCell>
                <mxCell id="R3Z3jWXpImrhK704x1m4-57" value="" style="endArrow=open;endSize=12;dashed=1;html=1;rounded=0;edgeStyle=orthogonalEdgeStyle;strokeWidth=2;" parent="1" source="R3Z3jWXpImrhK704x1m4-45" target="R3Z3jWXpImrhK704x1m4-36" edge="1">
                    <mxGeometry x="340" y="400" width="160" as="geometry">
                        <mxPoint x="530" y="500" as="sourcePoint"/>
                        <mxPoint x="460" y="630" as="targetPoint"/>
                        <Array as="points">
                            <mxPoint x="540" y="280"/>
                            <mxPoint x="540" y="280"/>
                        </Array>
                    </mxGeometry>
                </mxCell>
                <mxCell id="R3Z3jWXpImrhK704x1m4-59" value="" style="endArrow=open;endSize=12;dashed=1;html=1;rounded=0;edgeStyle=orthogonalEdgeStyle;strokeWidth=2;" parent="1" source="R3Z3jWXpImrhK704x1m4-47" target="R3Z3jWXpImrhK704x1m4-26" edge="1">
                    <mxGeometry width="160" relative="1" as="geometry">
                        <mxPoint x="420" y="640" as="sourcePoint"/>
                        <mxPoint x="580" y="640" as="targetPoint"/>
                    </mxGeometry>
                </mxCell>
                <mxCell id="R3Z3jWXpImrhK704x1m4-60" value="&lt;p style=&quot;margin: 0px ; margin-top: 4px ; text-align: center&quot;&gt;&lt;b&gt;PaymentSystemService&lt;br&gt;&lt;/b&gt;&lt;/p&gt;&lt;hr size=&quot;1&quot;&gt;&lt;p style=&quot;margin: 0px 0px 0px 4px&quot;&gt;+ paymentSystem: PaymentSystem&lt;/p&gt;&lt;hr size=&quot;1&quot;&gt;&lt;p style=&quot;margin: 0px 0px 0px 4px&quot;&gt;+ __construct()&lt;/p&gt;&lt;hr size=&quot;1&quot;&gt;&lt;p style=&quot;margin: 0px ; margin-left: 4px&quot;&gt;+ getPaymentSystem(): PaymentSystem&lt;/p&gt;&lt;p style=&quot;margin: 0px ; margin-left: 4px&quot;&gt;- initPayPalSystem(): void&lt;/p&gt;&lt;p style=&quot;margin: 0px ; margin-left: 4px&quot;&gt;- initLiqPaySystem(): void&lt;/p&gt;" style="verticalAlign=top;align=left;overflow=fill;fontSize=12;fontFamily=Helvetica;html=1;strokeWidth=2;" parent="1" vertex="1">
                    <mxGeometry x="80" y="420" width="240" height="160" as="geometry"/>
                </mxCell>
                <mxCell id="5" value="" style="endArrow=open;endSize=12;dashed=1;html=1;strokeWidth=2;" edge="1" parent="1" source="R3Z3jWXpImrhK704x1m4-60" target="R3Z3jWXpImrhK704x1m4-44">
                    <mxGeometry width="160" relative="1" as="geometry">
                        <mxPoint x="300" y="610" as="sourcePoint"/>
                        <mxPoint x="460" y="610" as="targetPoint"/>
                    </mxGeometry>
                </mxCell>
                <mxCell id="51" style="edgeStyle=orthogonalEdgeStyle;rounded=0;orthogonalLoop=1;jettySize=auto;html=1;strokeWidth=2;dashed=1;endArrow=none;endFill=0;" edge="1" parent="1" source="49" target="R3Z3jWXpImrhK704x1m4-45">
                    <mxGeometry relative="1" as="geometry">
                        <mxPoint x="400" y="80" as="targetPoint"/>
                    </mxGeometry>
                </mxCell>
                <mxCell id="49" value="This class has &lt;b&gt;Dependency Injection&lt;/b&gt; for inject PayPalClient object" style="shape=note;whiteSpace=wrap;html=1;backgroundOutline=1;darkOpacity=0.05;size=12;strokeWidth=2;" vertex="1" parent="1">
                    <mxGeometry x="160" y="200" width="160" height="70" as="geometry"/>
                </mxCell>
                <mxCell id="52" value="This &lt;b&gt;Serive&lt;/b&gt; controlling wich Payment System must be created by configuration" style="shape=note;whiteSpace=wrap;html=1;backgroundOutline=1;darkOpacity=0.05;size=12;strokeWidth=2;" vertex="1" parent="1">
                    <mxGeometry x="80" y="620" width="240" height="60" as="geometry"/>
                </mxCell>
                <mxCell id="53" value="" style="endArrow=none;dashed=1;html=1;rounded=0;edgeStyle=orthogonalEdgeStyle;strokeWidth=2;" edge="1" parent="1" source="R3Z3jWXpImrhK704x1m4-60" target="52">
                    <mxGeometry width="50" height="50" relative="1" as="geometry">
                        <mxPoint x="50" y="400" as="sourcePoint"/>
                        <mxPoint x="10" y="460" as="targetPoint"/>
                    </mxGeometry>
                </mxCell>
            </root>
        </mxGraphModel>
    </diagram>
</mxfile>